<svg xmlns="http://www.w3.org/2000/svg" viewBox="0 0 100 100"><path fill="#FFF" d="M80.1 90.1c-1.1 1-2.7.9-3.6-.2L56.6 68.1c-1-1-.9-2.7.2-3.6l8.6-7.8c1.1-1 2.7-.9 3.6.2l19.8 21.8c1 1 .9 2.7-.2 3.6l-8.5 7.8zM10.5 37.8c0-3.1.5-6.2 1.6-9.3 5.2-14.9 21.4-22.8 36.3-17.6C60.2 15 67.6 26 67.6 37.9c0 3.1-.5 6.2-1.6 9.3C60.8 62 44.6 69.9 29.7 64.8c-11.8-4.1-19.2-15.2-19.2-27m7.7 0c0 8.9 5.6 16.8 14 19.6 5.2 1.8 10.9 1.5 15.9-.9s8.7-6.7 10.6-11.9c.8-2.2 1.2-4.5 1.2-6.8 0-8.9-5.6-16.7-14-19.6-5.2-1.8-10.9-1.5-15.9.9S21.3 25.8 19.4 31c-.8 2.2-1.2 4.5-1.2 6.8z"/></svg>