<?xml version="1.0" encoding="utf-8"?>
<!-- Generator: Adobe Illustrator 19.2.1, SVG Export Plug-In . SVG Version: 6.00 Build 0)  -->
<!DOCTYPE svg PUBLIC "-//W3C//DTD SVG 1.1//EN" "http://www.w3.org/Graphics/SVG/1.1/DTD/svg11.dtd">
<svg version="1.1" id="Layer_1" xmlns="http://www.w3.org/2000/svg" xmlns:xlink="http://www.w3.org/1999/xlink" x="0px" y="0px"
	 viewBox="0 0 100 100" enable-background="new 0 0 100 100" xml:space="preserve">
<g id="Search">
	<g>
		<g>
			<g>
				<g>
					<path fill="#FFFFFF" d="M80.1,90.1c-1.1,1-2.7,0.9-3.6-0.2L56.6,68.1c-1-1-0.9-2.7,0.2-3.6l8.6-7.8c1.1-1,2.7-0.9,3.6,0.2
						l19.8,21.8c1,1,0.9,2.7-0.2,3.6L80.1,90.1z"/>
				</g>
			</g>
		</g>
		<g>
			<path fill="#FFFFFF" d="M10.5,37.8c0-3.1,0.5-6.2,1.6-9.3c5.2-14.9,21.4-22.8,36.3-17.6c11.8,4.1,19.2,15.1,19.2,27
				c0,3.1-0.5,6.2-1.6,9.3C60.8,62,44.6,69.9,29.7,64.8C17.9,60.7,10.5,49.6,10.5,37.8 M18.2,37.8c0,8.9,5.6,16.8,14,19.6
				c5.2,1.8,10.9,1.5,15.9-0.9c5-2.4,8.7-6.7,10.6-11.9c0.8-2.2,1.2-4.5,1.2-6.8c0-8.9-5.6-16.7-14-19.6c-5.2-1.8-10.9-1.5-15.9,0.9
				c-5,2.4-8.7,6.7-10.6,11.9l0,0C18.6,33.2,18.2,35.5,18.2,37.8L18.2,37.8z"/>
		</g>
	</g>
</g>
</svg>
